#!OML:ASF F:\VICON\USERDATA\INSTALL\rory3\rory3.ASF
:FULLY-SPECIFIED
:DEGREES
867
root -1.11029 25.7716 -1.41779 1.39928 8.26698 3.28803
lowerback 4.32127 -0.0549079 -4.959
upperback 1.51744 -0.264572 1.10407
thorax -0.831062 -0.141368 3.93755
lowerneck -12.3731 1.0942 -9.40533
upperneck 44.0492 4.86025 0.808105
head 18.5533 0.557577 3.0052
rclavicle 5.56597e-015 7.95139e-016
rhumerus -35.5824 -7.84913 -76.8389
rradius 33.3067
rwrist 19.2647
rhand -18.7215 2.0062
rfingers 7.12502
rthumb 7.57397 -27.8382
lclavicle 5.56597e-015 7.95139e-016
lhumerus -35.0292 11.8746 76.1529
lradius 31.9824
lwrist -4.60086
lhand -8.5843 28.4785
lfingers 7.12502
lthumb 17.3466 57.7244
rfemur -16.4461 -4.02757 21.4819
rtibia 18.3402
rfoot 3.31891 -11.2621
rtoes 18.1277
lfemur -22.9092 0.677877 -22.3949
ltibia 84.7597
lfoot -30.1183 -15.2878
ltoes -21.3158
868
root -1.12009 25.6892 -1.35134 1.44403 7.89177 3.35506
lowerback 4.44544 0.0266091 -4.90212
upperback 1.4506 -0.161206 1.10979
thorax -0.980549 -0.0842481 3.90709
lowerneck -12.3627 1.13408 -9.42113
upperneck 43.958 4.97783 0.669856
head 18.4937 0.58838 2.95873
rclavicle 1.55549e-014 1.23246e-014
rhumerus -35.3986 -7.70478 -76.9175
rradius 33.2011
rwrist 18.9859
rhand -18.9559 1.97826
rfingers 7.12502
rthumb 7.34774 -27.8742
lclavicle 1.55549e-014 1.23246e-014
lhumerus -35.0534 12.211 76.1281
lradius 31.6574
lwrist -4.69931
lhand -8.75134 28.5732
lfingers 7.12502
lthumb 17.1858 57.8332
rfemur -16.7736 -3.5869 21.5342
rtibia 19.4035
rfoot 1.56797 -10.5046
rtoes 20.0319
lfemur -23.2477 1.13921 -22.3087
ltibia 85.979
lfoot -29.7408 -15.5858
ltoes -21.6715
869
root -1.12868 25.6082 -1.28903 1.38356 7.50203 3.43234
lowerback 4.65543 0.0977531 -4.81843
upperback 1.47139 -0.0731443 1.08848
thorax -1.08596 -0.0377982 3.83386
lowerneck -12.505 1.16751 -9.46933
upperneck 43.9534 5.07426 0.642887
head 18.5241 0.611861 2.97479
rclavicle -3.62782e-015 -1.51076e-014
rhumerus -34.9817 -7.67708 -76.9676
rradius 32.9993
rwrist 19.2569
rhand -18.9944 1.85559
rfingers 7.12502
rthumb 7.31059 -27.9981
lclavicle -3.62782e-015 -1.51076e-014
lhumerus -34.9772 12.6593 76.0415
lradius 31.3156
lwrist -4.82131
lhand -8.85221 28.9133
lfingers 7.12502
lthumb 17.0887 58.1818
rfemur -17.055 -3.26631 21.5902
rtibia 20.496
rfoot 0.113599 -9.70797
rtoes 20.2463
lfemur -23.4959 1.57097 -22.2627
ltibia 87.2077
lfoot -29.3628 -15.6912
ltoes -22.257
870
root -1.1386 25.5312 -1.22957 1.22299 7.06491 3.30777
lowerback 4.90986 0.171001 -4.51513
upperback 1.55093 0.0276398 1.0711
thorax -1.1568 0.0128762 3.63939
lowerneck -12.5985 1.21506 -9.39327
upperneck 43.9045 5.16379 0.561353
head 18.5188 0.648581 2.93859
rclavicle -1.3418e-014 3.97569e-015
rhumerus -34.6284 -7.90119 -77.04
rradius 32.9449
rwrist 19.7349
rhand -18.9049 1.77099
rfingers 7.12502
rthumb 7.39694 -28.0797
lclavicle -1.3418e-014 3.97569e-015
lhumerus -34.8779 13.0915 75.8526
lradius 30.8968
lwrist -5.03443
lhand -8.92651 28.8772
lfingers 7.12502
lthumb 17.0172 58.1518
rfemur -17.3376 -2.96285 21.8938
rtibia 21.6606
rfoot -1.20095 -9.0038
rtoes 19.2225
lfemur -23.75 2.05447 -21.9522
ltibia 88.4565
lfoot -28.6842 -16.0796
ltoes -21.8836
871
root -1.1513 25.4551 -1.17383 1.07569 6.70303 3.11858
lowerback 5.23061 0.194027 -4.19451
upperback 1.59894 0.0613613 1.10282
thorax -1.28993 0.0319532 3.48979
lowerneck -12.645 1.27065 -9.31417
upperneck 43.7588 5.27123 0.424138
head 18.4427 0.691437 2.87367
rclavicle 1.83876e-015 -2.38542e-014
rhumerus -34.3052 -8.02109 -77.1471
rradius 32.8842
rwrist 19.9263
rhand -18.9698 1.58107
rfingers 7.12502
rthumb 7.33432 -28.2718
lclavicle 1.83876e-015 -2.38542e-014
lhumerus -34.9203 13.7918 75.6188
lradius 30.5325
lwrist -5.30308
lhand -9.06007 28.829
lfingers 7.12502
lthumb 16.8886 58.1147
rfemur -17.6362 -2.68835 22.2741
rtibia 22.8453
rfoot -2.42419 -8.44142
rtoes 19.5124
lfemur -24.0931 2.5067 -21.555
ltibia 89.7106
lfoot -27.7119 -16.5187
ltoes -20.7298
872
root -1.1595 25.38 -1.1199 0.913917 6.40722 2.96583
lowerback 5.64335 0.197477 -3.86514
upperback 1.6304 0.0678514 1.12265
thorax -1.48859 0.038831 3.32473
lowerneck -12.7778 1.32442 -9.28029
upperneck 43.6796 5.33686 0.448425
head 18.4223 0.726845 2.89108
rclavicle -1.15792e-014 1.47101e-014
rhumerus -34.0036 -8.1483 -77.1961
rradius 32.8683
rwrist 20.2637
rhand -18.9108 1.37588
rfingers 7.12502
rthumb 7.39128 -28.475
lclavicle -1.15792e-014 1.47101e-014
lhumerus -34.9309 14.5576 75.403
lradius 30.1551
lwrist -5.6097
lhand -9.12279 28.8709
lfingers 7.12502
lthumb 16.8282 58.1617
rfemur -17.8624 -2.51181 22.597
rtibia 23.988
rfoot -3.6509 -7.92537
rtoes 20.1745
lfemur -24.3982 2.88582 -21.2393
ltibia 90.9139
lfoot -26.5161 -16.9015
ltoes -20.0087
